<?xml version="1.0" encoding="utf-8"?>
<!-- Generator: Adobe Illustrator 17.0.0, SVG Export Plug-In . SVG Version: 6.00 Build 0)  -->
<!DOCTYPE svg PUBLIC "-//W3C//DTD SVG 1.1//EN" "http://www.w3.org/Graphics/SVG/1.1/DTD/svg11.dtd">
<svg version="1.1" id="BACKGROUND" xmlns="http://www.w3.org/2000/svg" xmlns:xlink="http://www.w3.org/1999/xlink" x="0px" y="0px"
	 width="750px" height="500px" viewBox="0 0 750 500" enable-background="new 0 0 750 500" xml:space="preserve">
<linearGradient id="SVGID_1_" gradientUnits="userSpaceOnUse" x1="72.1992" y1="530.3063" x2="597.1737" y2="44.3311">
	<stop  offset="0" style="stop-color:#FFA216"/>
	<stop  offset="1" style="stop-color:#FFDE0E"/>
</linearGradient>
<rect fill="url(#SVGID_1_)" width="750" height="500"/>
<g>
	<defs>
		<rect id="SVGID_2_" width="750" height="500"/>
	</defs>
	<clipPath id="SVGID_3_">
		<use xlink:href="#SVGID_2_"  overflow="visible"/>
	</clipPath>
	<g clip-path="url(#SVGID_3_)">
		<g>
			<path opacity="0.3" fill="#FDE801" d="M-5.044-7.019v234.562c24.774,6.597,53.124,7.575,73.698,5.457
				c66.939-6.89,119.049-49.697,138.054-115.203c12.59-43.398,36.971-80.859,82.96-92.518
				C422.929-8.501,491.239,153.667,605.862,184.535c55.099,14.839,107.114,9.642,151.056-23.39V-7.019H-5.044z"/>
			<path opacity="0.2" fill="#FDE801" d="M-0.604-7.019c-1.521,2.358-2.995,4.746-4.44,7.15v120.912
				c15.148,13.556,35.82,24.958,54.163,28.133c20.197,3.495,45.063,0.919,64.758-3.749c63.221-14.984,135.085-72.337,202.895-38.027
				c29.214,14.783,48.252,42.351,72.756,63.074c29.302,24.78,62.712,47,102.405,48.07c38.681,1.042,74.68-21.083,103.897-44.124
				c25.776-20.329,52.612-34.735,72.492-61.545c20.92-28.212,37.184-53.598,43.002-89.465c1.529-9.427,2.546-19.733,2.883-30.428
				H-0.604z"/>
			<path opacity="0.2" fill="#FDE801" d="M309.478-7.019c-0.893,17.428,1.716,35.168,8.76,52.7
				c15.028,37.4,39.517,67.763,72.869,81.895c16.052,6.801,34.156,9.843,54.248,8.101c32.589-2.827,62.796-15.125,91.265-30.652
				c25.329-13.815,44.728-35.454,71.523-46.688c54.277-22.753,97.545,4.232,148.774,20.215v-85.57H309.478z"/>
			<path opacity="0.2" fill="#FDE801" d="M321.364-7.019H-5.044V91.18c3.653-0.383,7.342-0.609,11.079-0.628
				c59.463-0.285,89.133,42.056,131.038,76.606c18.936,15.612,42.772,26.204,67.2,29.048c26.396,3.074,40.621-4.685,60.407-20.717
				c34.554-27.999,64.902-74.676,66.794-120.142C332.399,33.082,328.659,12.304,321.364-7.019z"/>
			<path opacity="0.2" fill="#FDE801" d="M648.664,267.766c-66.939,6.89-119.049,49.696-138.055,115.202
				c-12.59,43.398-36.971,80.859-82.959,92.518c-133.262,33.783-201.572-128.385-316.195-159.254
				c-41.26-11.112-80.793-10.991-116.5,3.642v186.083h761.962V288.743C729.68,268.503,680.096,264.53,648.664,267.766z"/>
			<path opacity="0.2" fill="#FDE801" d="M518.828,419.865c-16.029-20.229-46.238-39.707-72.199-44.2
				c-22.205-3.843-49.547-1.011-71.201,4.122c-69.512,16.476-148.527,79.536-223.085,41.811
				c-32.122-16.253-53.054-46.563-79.998-69.351c-23.165-19.59-48.665-37.724-77.389-46.806v200.515H523.41
				C534.89,477.634,538.894,445.189,518.828,419.865z"/>
			<path opacity="0.2" fill="#FDE801" d="M399.078,455.085c-15.027-37.4-39.515-67.762-72.868-81.895
				c-16.052-6.801-34.156-9.843-54.248-8.101c-32.589,2.827-62.796,15.124-91.265,30.652
				c-25.329,13.815-44.728,35.454-71.523,46.688c-41.705,17.482-76.909,5.6-114.219-8.094v71.62h412.962
				C408.541,489.117,405.876,472.004,399.078,455.085z"/>
			<path opacity="0.2" fill="#FDE801" d="M-5.044,505.956h572.58c-1.029-3.346-2.191-6.684-3.526-10.007
				c-15.027-37.4-39.515-67.762-72.867-81.895c-16.052-6.801-34.156-9.843-54.248-8.101c-32.589,2.827-62.796,15.124-91.265,30.652
				c-25.329,13.815-44.728,35.454-71.523,46.688c-52.207,21.887-98.86-9.305-149.662-18.667c-6.436-1.187-12.938-2.022-19.526-2.355
				c-20.278-1.024-41.814,0.078-61.463,4.834c-16.404,3.971-33.329,10.54-48.499,19.445V505.956z"/>
			<path opacity="0.2" fill="#FDE801" d="M590.95,137.122c-29.902-24.814-55.945-53.014-88.765-74.958
				c-32.901-21.998-82.742-37.23-121.247-46.51c-27.851-6.712-55.786-8.595-85.496-7.171c-36.476,1.748-58.271,19.377-83.627,43.503
				c-34.19,32.532-72.475,39.079-117.029,25.16C68.514,68.937,42.601,66.98,14.96,66.979c-6.668,0-13.356,0.565-20.004,1.645
				v437.332H205.89c1.428-0.869,2.85-1.74,4.266-2.615c44.947-27.781,73.109-78.066,117.709-107.357
				c41.789-27.443,79.371-39.13,129.825-34.037c57.465,5.805,81.561,40.295,118.961,78.088c19.89,20.1,38.615,36.417,64.91,47.133
				c33.072,13.478,75.898,17.935,115.358,12.426V166.276C698.215,179.167,636.879,175.234,590.95,137.122z"/>
			<path opacity="0.2" fill="#FDE801" d="M756.918,505.956V149.658c-21.981,6.283-42.321,18.419-58.942,37.698
				c-25.982,30.136-8.435,56.504-7.331,90.529c0.986,30.438-13.728,85.185-39.532,103.475
				c-61.62,43.683-172.494-18.686-203.583,65.805c-7.607,20.676-6.882,40.396-0.763,58.791H756.918z"/>
		</g>
		<g>
			<g>
				<path fill="#FDE801" d="M206.096,505.956c15.714-9.809,30.374-21.312,44.032-33.813c19.525-17.872,36.713-38.103,55.801-56.432
					c36.146-34.707,79.594-64.821,131.57-65.105c25.246-0.139,50.037,6.515,71.336,20.086c18.717,11.926,34.11,28.314,49.31,44.281
					c14.889,15.64,29.942,31.276,47.897,43.454c22.955,15.569,50.565,24.965,77.64,30.125c24.236,4.62,48.754,5.432,73.237,3.949
					v-2.09c-21.349,1.27-42.75,0.813-64.108-2.337c-28.776-4.243-57.702-13.71-82.432-29.203
					c-18.959-11.878-34.584-28.266-49.91-44.358c-14.786-15.525-29.631-31.161-47.364-43.387
					c-19.325-13.323-41.461-20.209-64.761-22.107c-49.438-4.028-93.241,20.556-129.363,52.011
					c-19.484,16.967-36.661,36.156-54.697,54.589c-18.725,19.138-39.206,36.419-62.093,50.336H206.096z"/>
			</g>
			<g>
				<path fill="#FFFA22" d="M693.563,49.915c-13.093-4.175-27.502-4.341-41.034-2.801c-28.335,3.225-54.083,16.094-78.354,30.297
					c-49.05,28.702-103.171,61.886-162.313,56.666c-26.168-2.31-50.711-13.483-68.001-33.451
					c-15.614-18.032-24.499-41.269-29.809-64.238c-3.254-14.076-5.332-28.759-5.633-43.405h-2.006
					c0.202,25.631,5.801,51.409,15.428,74.682c8.231,19.897,20.778,38.217,38.572,50.672c20.798,14.559,46.986,19.292,71.941,18.144
					C490.105,133.823,540.075,98.081,589,71.198c26.195-14.394,55.778-24.759,86.032-22.623c14.814,1.046,27.928,6.43,40.725,13.66
					c11.176,6.314,21.924,13.222,33.909,17.959c2.4,0.949,4.821,1.844,7.252,2.71v-2.192c-10.12-3.803-19.911-8.381-29.22-13.814
					C716.677,60.465,705.796,53.815,693.563,49.915z"/>
			</g>
			<g>
				<path fill="#FFFA22" d="M253.77,505.956c29.011-16.409,55.687-37.314,83.318-55.623c34.873-23.107,74.72-46.598,118.042-44.807
					c45.737,1.891,85.848,35.815,105.449,75.493c4.014,8.125,7.435,16.459,10.443,24.937h1.966
					c-3.23-9.245-6.923-18.337-11.303-27.202c-19.309-39.087-58.674-71.15-102.989-74.999c-41.51-3.607-80.925,18.06-114.667,39.667
					c-31.725,20.314-61.544,44.244-94.565,62.534H253.77z"/>
			</g>
			<g>
				<path fill="#FFFA22" d="M698.115,195.701c-38.166,7.28-77.889-3.037-112.831-18.246c-37.471-16.31-71.969-39.545-103.04-65.945
					c-34.245-29.097-63.55-64.155-105.997-81.894c-22.679-9.478-47.546-12.074-71.762-8.14
					c-24.346,3.955-46.031,17.278-62.703,35.127c-31.119,33.315-36.116,81.176-61.055,118.225
					c-14.656,21.773-37.391,34.717-60.685,45.611c-28.71,13.428-58.875,17.616-90.269,13.84
					c-11.755-1.414-23.363-3.912-34.817-6.921v2.041c10.209,2.643,20.534,4.825,30.976,6.342
					c29.329,4.262,58.998,1.725,86.467-9.735c23.566-9.831,48.004-22.525,64.416-42.606c28.556-34.939,32.616-83.303,60.582-118.697
					c16.198-20.501,38.919-35.404,64.566-40.759c26.005-5.43,53.338-1.473,77.478,9.172c42.362,18.682,71.912,55.398,106.819,84.329
					c30.7,25.444,64.775,47.723,101.592,63.246c34.063,14.361,71.681,23.41,108.684,17.287c23.082-3.819,43.37-14.223,60.383-28.895
					v-2.75C740.502,180.872,720.886,191.358,698.115,195.701z"/>
			</g>
			<g>
				<path fill="#FFFA22" d="M277.16-7.019c-12.042,16.373-26.666,30.802-41.905,44.176c-10.617,9.318-21.46,18.218-33.787,25.202
					c-11.434,6.478-23.843,11.039-36.587,14.146c-24.762,6.039-50.616,5.682-75.894,4.317C61.5,79.34,34.078,76.47,6.516,77.189
					C2.654,77.29-1.2,77.485-5.044,77.761v2.396c30.02-2.084,60.651,0.688,90.964,2.492c24.59,1.463,49.412,1.826,73.69-2.94
					c25.132-4.933,48.112-16.408,67.545-33.021c19.126-16.35,37.529-33.393,52.4-53.706H277.16z"/>
			</g>
			<g>
				<path fill="#FFFA22" d="M118.687,466.348c-42.184-5.446-85.358,3.136-123.731,21.127v2.198
					c22.512-10.691,46.636-17.959,71.45-21.175c25.188-3.263,50.918-1.901,75.563,4.248c25.577,6.383,49.087,18.885,71.081,33.21
					h3.41C186.746,486.438,154.824,471.014,118.687,466.348z"/>
			</g>
			<g opacity="0.6">
				<path fill="#F2FF0C" d="M437.376,505.956c-2.317-15.226-2.511-30.824,1.017-45.842c4.724-20.116,17.493-37.528,35.239-48.122
					c22.166-13.232,50.644-9.307,75.14-7.836c11.848,0.711,23.93,1.279,35.717-0.477c10.886-1.622,21.598-5.133,31.691-9.474
					c40.92-17.6,74.386-53.069,76.266-99.321c0.963-23.715-7.591-46.486-8.231-70.075c-0.69-25.455,10.855-47.33,32.423-60.664
					c12.168-7.522,26.047-12.235,40.281-15.227v-2.002c-18.849,3.952-37.401,10.932-52.037,23.263
					c-20.548,17.311-24.813,44.145-21.402,69.54c1.903,14.178,5.377,28.076,6.619,42.353c1.103,12.672-0.12,25.344-3.729,37.541
					c-6.76,22.855-22.517,41.993-41.434,56.02c-18.549,13.753-41.85,24.181-64.943,26.583c-25.052,2.604-50.196-3.01-75.297-1.087
					c-21.908,1.679-40.837,11.518-54.338,28.915c-16.801,21.648-18.878,49.457-14.931,75.911H437.376z"/>
			</g>
		</g>
		<g>
			<g>
				<g>
					<g>
						<path fill="#FFFFFF" d="M579.518,125.674c1.098,0,1.982,0.892,1.982,1.989c0,1.094-0.885,1.984-1.982,1.984
							c-1.099,0-1.98-0.891-1.98-1.984C577.537,126.566,578.419,125.674,579.518,125.674z"/>
					</g>
					<g>
						<path fill="#FFFFFF" d="M579.518,108.729c1.098,0,1.982,0.886,1.982,1.983c0,1.098-0.885,1.985-1.982,1.985
							c-1.099,0-1.98-0.888-1.98-1.985C577.537,109.615,578.419,108.729,579.518,108.729z"/>
					</g>
					<g>
						<path fill="#FFFFFF" d="M592.191,125.674c1.094,0,1.984,0.892,1.984,1.989c0,1.094-0.891,1.984-1.984,1.984
							c-1.1,0-1.984-0.891-1.984-1.984C590.207,126.566,591.092,125.674,592.191,125.674z"/>
					</g>
					<g>
						<path fill="#FFFFFF" d="M592.191,108.729c1.094,0,1.984,0.886,1.984,1.983c0,1.098-0.891,1.985-1.984,1.985
							c-1.1,0-1.984-0.888-1.984-1.985C590.207,109.615,591.092,108.729,592.191,108.729z"/>
					</g>
					<g>
						<path fill="#FFFFFF" d="M605.477,125.674c1.096,0,1.984,0.892,1.984,1.989c0,1.094-0.889,1.984-1.984,1.984
							c-1.095,0-1.983-0.891-1.983-1.984C603.493,126.566,604.382,125.674,605.477,125.674z"/>
					</g>
					<g>
						<circle fill="#FFFFFF" cx="605.477" cy="110.713" r="1.984"/>
					</g>
					<g>
						<path fill="#FFFFFF" d="M618.149,125.674c1.097,0,1.981,0.892,1.981,1.989c0,1.094-0.885,1.984-1.981,1.984
							c-1.099,0-1.985-0.891-1.985-1.984C616.164,126.566,617.051,125.674,618.149,125.674z"/>
					</g>
					<g>
						<path fill="#FFFFFF" d="M618.149,108.729c1.097,0,1.981,0.886,1.981,1.983c0,1.098-0.885,1.985-1.981,1.985
							c-1.099,0-1.985-0.888-1.985-1.985C616.164,109.615,617.051,108.729,618.149,108.729z"/>
					</g>
					<g>
						<path fill="#FFFFFF" d="M629.602,125.674c1.098,0,1.983,0.892,1.983,1.989c0,1.094-0.885,1.984-1.983,1.984
							c-1.096,0-1.987-0.891-1.987-1.984C627.615,126.566,628.507,125.674,629.602,125.674z"/>
					</g>
					<g>
						<path fill="#FFFFFF" d="M629.602,108.729c1.098,0,1.983,0.886,1.983,1.983c0,1.098-0.885,1.985-1.983,1.985
							c-1.096,0-1.987-0.888-1.987-1.985C627.615,109.615,628.507,108.729,629.602,108.729z"/>
					</g>
				</g>
				<g>
					<g>
						<path fill="#FFFFFF" d="M579.518,93.152c1.098,0,1.982,0.889,1.982,1.986c0,1.102-0.885,1.982-1.982,1.982
							c-1.099,0-1.98-0.881-1.98-1.982C577.537,94.04,578.419,93.152,579.518,93.152z"/>
					</g>
					<g>
						<path fill="#FFFFFF" d="M579.518,76.205c1.098,0,1.982,0.889,1.982,1.985c0,1.094-0.885,1.986-1.982,1.986
							c-1.099,0-1.98-0.893-1.98-1.986C577.537,77.093,578.419,76.205,579.518,76.205z"/>
					</g>
					<g>
						<path fill="#FFFFFF" d="M592.191,93.152c1.094,0,1.984,0.889,1.984,1.986c0,1.102-0.891,1.982-1.984,1.982
							c-1.1,0-1.984-0.881-1.984-1.982C590.207,94.04,591.092,93.152,592.191,93.152z"/>
					</g>
					<g>
						<path fill="#FFFFFF" d="M592.191,76.205c1.094,0,1.984,0.889,1.984,1.985c0,1.094-0.891,1.986-1.984,1.986
							c-1.1,0-1.984-0.893-1.984-1.986C590.207,77.093,591.092,76.205,592.191,76.205z"/>
					</g>
					<g>
						<path fill="#FFFFFF" d="M605.477,93.152c1.096,0,1.984,0.889,1.984,1.986c0,1.102-0.889,1.982-1.984,1.982
							c-1.095,0-1.983-0.881-1.983-1.982C603.493,94.04,604.382,93.152,605.477,93.152z"/>
					</g>
					<g>
						<path fill="#FFFFFF" d="M605.477,76.205c1.096,0,1.984,0.889,1.984,1.985c0,1.094-0.889,1.986-1.984,1.986
							c-1.095,0-1.983-0.893-1.983-1.986C603.493,77.093,604.382,76.205,605.477,76.205z"/>
					</g>
					<g>
						<path fill="#FFFFFF" d="M618.149,93.152c1.097,0,1.981,0.889,1.981,1.986c0,1.102-0.885,1.982-1.981,1.982
							c-1.099,0-1.985-0.881-1.985-1.982C616.164,94.04,617.051,93.152,618.149,93.152z"/>
					</g>
					<g>
						<path fill="#FFFFFF" d="M618.149,76.205c1.097,0,1.981,0.889,1.981,1.985c0,1.094-0.885,1.986-1.981,1.986
							c-1.099,0-1.985-0.893-1.985-1.986C616.164,77.093,617.051,76.205,618.149,76.205z"/>
					</g>
					<g>
						<path fill="#FFFFFF" d="M629.602,93.152c1.098,0,1.983,0.889,1.983,1.986c0,1.102-0.885,1.982-1.983,1.982
							c-1.096,0-1.987-0.881-1.987-1.982C627.615,94.04,628.507,93.152,629.602,93.152z"/>
					</g>
					<g>
						<path fill="#FFFFFF" d="M629.602,76.205c1.098,0,1.983,0.889,1.983,1.985c0,1.094-0.885,1.986-1.983,1.986
							c-1.096,0-1.987-0.893-1.987-1.986C627.615,77.093,628.507,76.205,629.602,76.205z"/>
					</g>
				</g>
				<g>
					<g>
						<path fill="#FFFFFF" d="M579.518,58.828c1.098,0,1.982,0.893,1.982,1.989c0,1.094-0.885,1.985-1.982,1.985
							c-1.099,0-1.98-0.892-1.98-1.985C577.537,59.72,578.419,58.828,579.518,58.828z"/>
					</g>
					<g>
						<path fill="#FFFFFF" d="M579.518,41.879c1.098,0,1.982,0.894,1.982,1.987c0,1.097-0.885,1.987-1.982,1.987
							c-1.099,0-1.98-0.891-1.98-1.987C577.537,42.773,578.419,41.879,579.518,41.879z"/>
					</g>
					<g>
						<path fill="#FFFFFF" d="M592.191,58.828c1.094,0,1.984,0.893,1.984,1.989c0,1.094-0.891,1.985-1.984,1.985
							c-1.1,0-1.984-0.892-1.984-1.985C590.207,59.72,591.092,58.828,592.191,58.828z"/>
					</g>
					<g>
						<path fill="#FFFFFF" d="M592.191,41.879c1.094,0,1.984,0.894,1.984,1.987c0,1.097-0.891,1.987-1.984,1.987
							c-1.1,0-1.984-0.891-1.984-1.987C590.207,42.773,591.092,41.879,592.191,41.879z"/>
					</g>
					<g>
						<path fill="#FFFFFF" d="M605.477,58.828c1.096,0,1.984,0.893,1.984,1.989c0,1.094-0.889,1.985-1.984,1.985
							c-1.095,0-1.983-0.892-1.983-1.985C603.493,59.72,604.382,58.828,605.477,58.828z"/>
					</g>
					<g>
						<path fill="#FFFFFF" d="M605.477,41.879c1.096,0,1.984,0.894,1.984,1.987c0,1.097-0.889,1.987-1.984,1.987
							c-1.095,0-1.983-0.891-1.983-1.987C603.493,42.773,604.382,41.879,605.477,41.879z"/>
					</g>
					<g>
						<path fill="#FFFFFF" d="M618.149,58.828c1.097,0,1.981,0.893,1.981,1.989c0,1.094-0.885,1.985-1.981,1.985
							c-1.099,0-1.985-0.892-1.985-1.985C616.164,59.72,617.051,58.828,618.149,58.828z"/>
					</g>
					<g>
						<path fill="#FFFFFF" d="M618.149,41.879c1.097,0,1.981,0.894,1.981,1.987c0,1.097-0.885,1.987-1.981,1.987
							c-1.099,0-1.985-0.891-1.985-1.987C616.164,42.773,617.051,41.879,618.149,41.879z"/>
					</g>
					<g>
						<path fill="#FFFFFF" d="M629.602,58.828c1.098,0,1.983,0.893,1.983,1.989c0,1.094-0.885,1.985-1.983,1.985
							c-1.096,0-1.987-0.892-1.987-1.985C627.615,59.72,628.507,58.828,629.602,58.828z"/>
					</g>
					<g>
						<path fill="#FFFFFF" d="M629.602,41.879c1.098,0,1.983,0.894,1.983,1.987c0,1.097-0.885,1.987-1.983,1.987
							c-1.096,0-1.987-0.891-1.987-1.987C627.615,42.773,628.507,41.879,629.602,41.879z"/>
					</g>
				</g>
				<g>
					<g>
						<path fill="#FFFFFF" d="M642.729,125.674c1.101,0,1.987,0.892,1.987,1.989c0,1.094-0.887,1.984-1.987,1.984
							c-1.093,0-1.979-0.891-1.979-1.984C640.75,126.566,641.637,125.674,642.729,125.674z"/>
					</g>
					<g>
						<path fill="#FFFFFF" d="M642.729,108.729c1.101,0,1.987,0.886,1.987,1.983c0,1.098-0.887,1.985-1.987,1.985
							c-1.093,0-1.979-0.888-1.979-1.985C640.75,109.615,641.637,108.729,642.729,108.729z"/>
					</g>
					<g>
						<path fill="#FFFFFF" d="M655.409,125.674c1.088,0,1.98,0.892,1.98,1.989c0,1.094-0.893,1.984-1.98,1.984
							c-1.105,0-1.987-0.891-1.987-1.984C653.422,126.566,654.304,125.674,655.409,125.674z"/>
					</g>
					<g>
						<path fill="#FFFFFF" d="M655.409,108.729c1.088,0,1.98,0.886,1.98,1.983c0,1.098-0.893,1.985-1.98,1.985
							c-1.105,0-1.987-0.888-1.987-1.985C653.422,109.615,654.304,108.729,655.409,108.729z"/>
					</g>
					<g>
						<path fill="#FFFFFF" d="M668.69,125.674c1.097,0,1.986,0.892,1.986,1.989c0,1.094-0.89,1.984-1.986,1.984
							c-1.096,0-1.984-0.891-1.984-1.984C666.705,126.566,667.594,125.674,668.69,125.674z"/>
					</g>
					<g>
						<circle fill="#FFFFFF" cx="668.69" cy="110.713" r="1.984"/>
					</g>
				</g>
				<g>
					<g>
						<path fill="#FFFFFF" d="M642.729,93.152c1.101,0,1.987,0.889,1.987,1.986c0,1.102-0.887,1.982-1.987,1.982
							c-1.093,0-1.979-0.881-1.979-1.982C640.75,94.04,641.637,93.152,642.729,93.152z"/>
					</g>
					<g>
						<path fill="#FFFFFF" d="M642.729,76.205c1.101,0,1.987,0.889,1.987,1.985c0,1.094-0.887,1.986-1.987,1.986
							c-1.093,0-1.979-0.893-1.979-1.986C640.75,77.093,641.637,76.205,642.729,76.205z"/>
					</g>
					<g>
						<path fill="#FFFFFF" d="M655.409,93.152c1.088,0,1.98,0.889,1.98,1.986c0,1.102-0.893,1.982-1.98,1.982
							c-1.105,0-1.987-0.881-1.987-1.982C653.422,94.04,654.304,93.152,655.409,93.152z"/>
					</g>
					<g>
						<path fill="#FFFFFF" d="M655.409,76.205c1.088,0,1.98,0.889,1.98,1.985c0,1.094-0.893,1.986-1.98,1.986
							c-1.105,0-1.987-0.893-1.987-1.986C653.422,77.093,654.304,76.205,655.409,76.205z"/>
					</g>
					<g>
						<path fill="#FFFFFF" d="M668.69,93.152c1.097,0,1.986,0.889,1.986,1.986c0,1.102-0.89,1.982-1.986,1.982
							c-1.096,0-1.984-0.881-1.984-1.982C666.705,94.04,667.594,93.152,668.69,93.152z"/>
					</g>
					<g>
						<path fill="#FFFFFF" d="M668.69,76.205c1.097,0,1.986,0.889,1.986,1.985c0,1.094-0.89,1.986-1.986,1.986
							c-1.096,0-1.984-0.893-1.984-1.986C666.705,77.093,667.594,76.205,668.69,76.205z"/>
					</g>
				</g>
				<g>
					<g>
						<path fill="#FFFFFF" d="M642.729,58.828c1.101,0,1.987,0.893,1.987,1.989c0,1.094-0.887,1.985-1.987,1.985
							c-1.093,0-1.979-0.892-1.979-1.985C640.75,59.72,641.637,58.828,642.729,58.828z"/>
					</g>
					<g>
						<path fill="#FFFFFF" d="M642.729,41.879c1.101,0,1.987,0.894,1.987,1.987c0,1.097-0.887,1.987-1.987,1.987
							c-1.093,0-1.979-0.891-1.979-1.987C640.75,42.773,641.637,41.879,642.729,41.879z"/>
					</g>
					<g>
						<path fill="#FFFFFF" d="M655.409,58.828c1.088,0,1.98,0.893,1.98,1.989c0,1.094-0.893,1.985-1.98,1.985
							c-1.105,0-1.987-0.892-1.987-1.985C653.422,59.72,654.304,58.828,655.409,58.828z"/>
					</g>
					<g>
						<path fill="#FFFFFF" d="M655.409,41.879c1.088,0,1.98,0.894,1.98,1.987c0,1.097-0.893,1.987-1.98,1.987
							c-1.105,0-1.987-0.891-1.987-1.987C653.422,42.773,654.304,41.879,655.409,41.879z"/>
					</g>
					<g>
						<path fill="#FFFFFF" d="M668.69,58.828c1.097,0,1.986,0.893,1.986,1.989c0,1.094-0.89,1.985-1.986,1.985
							c-1.096,0-1.984-0.892-1.984-1.985C666.705,59.72,667.594,58.828,668.69,58.828z"/>
					</g>
					<g>
						<path fill="#FFFFFF" d="M668.69,41.879c1.097,0,1.986,0.894,1.986,1.987c0,1.097-0.89,1.987-1.986,1.987
							c-1.096,0-1.984-0.891-1.984-1.987C666.705,42.773,667.594,41.879,668.69,41.879z"/>
					</g>
				</g>
			</g>
			<g>
				<g>
					<path fill="#FFFFFF" d="M170.435,438.473c0-1.153,0.936-2.084,2.091-2.084c1.148,0,2.083,0.931,2.083,2.084
						c0,1.154-0.935,2.082-2.083,2.082C171.371,440.555,170.435,439.627,170.435,438.473z"/>
				</g>
				<g>
					<path fill="#FFFFFF" d="M152.627,438.473c0-1.153,0.934-2.084,2.088-2.084c1.148,0,2.084,0.931,2.084,2.084
						c0,1.154-0.936,2.082-2.084,2.082C153.561,440.555,152.627,439.627,152.627,438.473z"/>
				</g>
				<g>
					<path fill="#FFFFFF" d="M170.435,425.152c0-1.149,0.936-2.086,2.091-2.086c1.148,0,2.083,0.936,2.083,2.086
						c0,1.155-0.935,2.085-2.083,2.085C171.371,427.237,170.435,426.308,170.435,425.152z"/>
				</g>
				<g>
					<path fill="#FFFFFF" d="M152.627,425.152c0-1.149,0.934-2.086,2.088-2.086c1.148,0,2.084,0.936,2.084,2.086
						c0,1.155-0.936,2.085-2.084,2.085C153.561,427.237,152.627,426.308,152.627,425.152z"/>
				</g>
				<g>
					<path fill="#FFFFFF" d="M170.435,411.19c0-1.151,0.936-2.086,2.091-2.086c1.148,0,2.083,0.935,2.083,2.086
						c0,1.15-0.935,2.085-2.083,2.085C171.371,413.274,170.435,412.34,170.435,411.19z"/>
				</g>
				<g>
					<path fill="#FFFFFF" d="M152.627,411.19c0-1.151,0.934-2.086,2.088-2.086c1.148,0,2.084,0.935,2.084,2.086
						c0,1.15-0.936,2.085-2.084,2.085C153.561,413.274,152.627,412.34,152.627,411.19z"/>
				</g>
				<g>
					<path fill="#FFFFFF" d="M134.363,438.473c0-1.153,0.937-2.084,2.091-2.084c1.148,0,2.085,0.931,2.085,2.084
						c0,1.154-0.937,2.082-2.085,2.082C135.3,440.555,134.363,439.627,134.363,438.473z"/>
				</g>
				<g>
					<path fill="#FFFFFF" d="M116.554,438.473c0-1.153,0.93-2.084,2.084-2.084c1.154,0,2.087,0.931,2.087,2.084
						c0,1.154-0.934,2.082-2.087,2.082C117.484,440.555,116.554,439.627,116.554,438.473z"/>
				</g>
				<g>
					<path fill="#FFFFFF" d="M134.363,425.152c0-1.149,0.937-2.086,2.091-2.086c1.148,0,2.085,0.936,2.085,2.086
						c0,1.155-0.937,2.085-2.085,2.085C135.3,427.237,134.363,426.308,134.363,425.152z"/>
				</g>
				<g>
					<path fill="#FFFFFF" d="M116.554,425.152c0-1.149,0.93-2.086,2.084-2.086c1.154,0,2.087,0.936,2.087,2.086
						c0,1.155-0.934,2.085-2.087,2.085C117.484,427.237,116.554,426.308,116.554,425.152z"/>
				</g>
				<g>
					<path fill="#FFFFFF" d="M134.363,411.19c0-1.151,0.937-2.086,2.091-2.086c1.148,0,2.085,0.935,2.085,2.086
						c0,1.15-0.937,2.085-2.085,2.085C135.3,413.274,134.363,412.34,134.363,411.19z"/>
				</g>
				<g>
					<circle fill="#FFFFFF" cx="118.64" cy="411.19" r="2.086"/>
				</g>
				<g>
					<path fill="#FFFFFF" d="M100.182,438.473c0-1.153,0.933-2.084,2.087-2.084c1.158,0,2.085,0.931,2.085,2.084
						c0,1.154-0.927,2.082-2.085,2.082C101.115,440.555,100.182,439.627,100.182,438.473z"/>
				</g>
				<g>
					<path fill="#FFFFFF" d="M82.37,438.473c0-1.153,0.934-2.084,2.087-2.084c1.15,0,2.087,0.931,2.087,2.084
						c0,1.154-0.938,2.082-2.087,2.082C83.304,440.555,82.37,439.627,82.37,438.473z"/>
				</g>
				<g>
					<path fill="#FFFFFF" d="M100.182,425.152c0-1.149,0.933-2.086,2.087-2.086c1.158,0,2.085,0.936,2.085,2.086
						c0,1.155-0.927,2.085-2.085,2.085C101.115,427.237,100.182,426.308,100.182,425.152z"/>
				</g>
				<g>
					<path fill="#FFFFFF" d="M82.37,425.152c0-1.149,0.934-2.086,2.087-2.086c1.15,0,2.087,0.936,2.087,2.086
						c0,1.155-0.938,2.085-2.087,2.085C83.304,427.237,82.37,426.308,82.37,425.152z"/>
				</g>
				<g>
					<path fill="#FFFFFF" d="M100.182,411.19c0-1.151,0.933-2.086,2.087-2.086c1.158,0,2.085,0.935,2.085,2.086
						c0,1.15-0.927,2.085-2.085,2.085C101.115,413.274,100.182,412.34,100.182,411.19z"/>
				</g>
				<g>
					<path fill="#FFFFFF" d="M82.37,411.19c0-1.151,0.934-2.086,2.087-2.086c1.15,0,2.087,0.935,2.087,2.086
						c0,1.15-0.938,2.085-2.087,2.085C83.304,413.274,82.37,412.34,82.37,411.19z"/>
				</g>
				<g>
					<path fill="#FFFFFF" d="M64.106,438.473c0-1.153,0.938-2.084,2.09-2.084c1.15,0,2.088,0.931,2.088,2.084
						c0,1.154-0.938,2.082-2.088,2.082C65.044,440.555,64.106,439.627,64.106,438.473z"/>
				</g>
				<g>
					<path fill="#FFFFFF" d="M46.293,438.473c0-1.153,0.938-2.084,2.088-2.084c1.153,0,2.088,0.931,2.088,2.084
						c0,1.154-0.936,2.082-2.088,2.082C47.231,440.555,46.293,439.627,46.293,438.473z"/>
				</g>
				<g>
					<path fill="#FFFFFF" d="M64.106,425.152c0-1.149,0.938-2.086,2.09-2.086c1.15,0,2.088,0.936,2.088,2.086
						c0,1.155-0.938,2.085-2.088,2.085C65.044,427.237,64.106,426.308,64.106,425.152z"/>
				</g>
				<g>
					<path fill="#FFFFFF" d="M46.293,425.152c0-1.149,0.938-2.086,2.088-2.086c1.153,0,2.088,0.936,2.088,2.086
						c0,1.155-0.936,2.085-2.088,2.085C47.231,427.237,46.293,426.308,46.293,425.152z"/>
				</g>
				<g>
					<path fill="#FFFFFF" d="M64.106,411.19c0-1.151,0.938-2.086,2.09-2.086c1.15,0,2.088,0.935,2.088,2.086
						c0,1.15-0.938,2.085-2.088,2.085C65.044,413.274,64.106,412.34,64.106,411.19z"/>
				</g>
				<g>
					<path fill="#FFFFFF" d="M46.293,411.19c0-1.151,0.938-2.086,2.088-2.086c1.153,0,2.088,0.935,2.088,2.086
						c0,1.15-0.936,2.085-2.088,2.085C47.231,413.274,46.293,412.34,46.293,411.19z"/>
				</g>
				<g>
					<path fill="#FFFFFF" d="M184.015,438.473c0-1.153,0.936-2.084,2.087-2.084c1.152,0,2.09,0.931,2.09,2.084
						c0,1.154-0.938,2.082-2.09,2.082C184.951,440.555,184.015,439.627,184.015,438.473z"/>
				</g>
				<g>
					<path fill="#FFFFFF" d="M184.015,425.152c0-1.149,0.936-2.086,2.087-2.086c1.152,0,2.09,0.936,2.09,2.086
						c0,1.155-0.938,2.085-2.09,2.085C184.951,427.237,184.015,426.308,184.015,425.152z"/>
				</g>
				<g>
					<circle fill="#FFFFFF" cx="186.103" cy="411.19" r="2.089"/>
				</g>
			</g>
			<g>
				<g>
					<path fill="#FFFFFF" d="M648.356,439.176c0-1.362,1.107-2.461,2.47-2.461c1.356,0,2.464,1.099,2.464,2.461
						c0,1.363-1.107,2.457-2.464,2.457C649.464,441.633,648.356,440.539,648.356,439.176z"/>
				</g>
				<g>
					<path fill="#FFFFFF" d="M627.329,439.176c0-1.362,1.1-2.461,2.463-2.461c1.361,0,2.462,1.099,2.462,2.461
						c0,1.363-1.101,2.457-2.462,2.457C628.429,441.633,627.329,440.539,627.329,439.176z"/>
				</g>
				<g>
					<path fill="#FFFFFF" d="M648.356,423.448c0-1.357,1.107-2.462,2.47-2.462c1.356,0,2.464,1.104,2.464,2.462
						c0,1.364-1.107,2.462-2.464,2.462C649.464,425.91,648.356,424.813,648.356,423.448z"/>
				</g>
				<g>
					<path fill="#FFFFFF" d="M627.329,423.448c0-1.357,1.1-2.462,2.463-2.462c1.361,0,2.462,1.104,2.462,2.462
						c0,1.364-1.101,2.462-2.462,2.462C628.429,425.91,627.329,424.813,627.329,423.448z"/>
				</g>
				<g>
					<path fill="#FFFFFF" d="M648.356,406.962c0-1.358,1.107-2.462,2.47-2.462c1.356,0,2.464,1.103,2.464,2.462
						c0,1.359-1.107,2.462-2.464,2.462C649.464,409.424,648.356,408.321,648.356,406.962z"/>
				</g>
				<g>
					<path fill="#FFFFFF" d="M627.329,406.962c0-1.358,1.1-2.462,2.463-2.462c1.361,0,2.462,1.103,2.462,2.462
						c0,1.359-1.101,2.462-2.462,2.462C628.429,409.424,627.329,408.321,627.329,406.962z"/>
				</g>
				<g>
					<path fill="#FFFFFF" d="M608.002,439.176c0-1.362,1.1-2.461,2.464-2.461c1.364,0,2.461,1.099,2.461,2.461
						c0,1.363-1.097,2.457-2.461,2.457C609.102,441.633,608.002,440.539,608.002,439.176z"/>
				</g>
				<g>
					<path fill="#FFFFFF" d="M586.972,439.176c0-1.362,1.101-2.461,2.462-2.461c1.356,0,2.466,1.099,2.466,2.461
						c0,1.363-1.109,2.457-2.466,2.457C588.072,441.633,586.972,440.539,586.972,439.176z"/>
				</g>
				<g>
					<path fill="#FFFFFF" d="M608.002,423.448c0-1.357,1.1-2.462,2.464-2.462c1.364,0,2.461,1.104,2.461,2.462
						c0,1.364-1.097,2.462-2.461,2.462C609.102,425.91,608.002,424.813,608.002,423.448z"/>
				</g>
				<g>
					<path fill="#FFFFFF" d="M586.972,423.448c0-1.357,1.101-2.462,2.462-2.462c1.356,0,2.466,1.104,2.466,2.462
						c0,1.364-1.109,2.462-2.466,2.462C588.072,425.91,586.972,424.813,586.972,423.448z"/>
				</g>
				<g>
					<path fill="#FFFFFF" d="M608.002,406.962c0-1.358,1.1-2.462,2.464-2.462c1.364,0,2.461,1.103,2.461,2.462
						c0,1.359-1.097,2.462-2.461,2.462C609.102,409.424,608.002,408.321,608.002,406.962z"/>
				</g>
				<g>
					<path fill="#FFFFFF" d="M586.972,406.962c0-1.358,1.101-2.462,2.462-2.462c1.356,0,2.466,1.103,2.466,2.462
						c0,1.359-1.109,2.462-2.466,2.462C588.072,409.424,586.972,408.321,586.972,406.962z"/>
				</g>
			</g>
			<path fill="none" stroke="#FFFFFF" stroke-width="2" stroke-miterlimit="10" d="M137.907-7.019H-5.044v107.477
				c15.511,11.508,34.717,18.317,55.514,18.317c51.512,0,93.27-41.758,93.27-93.27C143.74,14.066,141.676,3.109,137.907-7.019z"/>
			<path fill="none" stroke="#FFFFFF" stroke-width="2" stroke-miterlimit="10" d="M756.918,377.609
				c-2.212-0.567-4.529-0.869-6.918-0.869c-15.332,0-27.76,12.429-27.76,27.76s12.428,27.76,27.76,27.76
				c2.389,0,4.706-0.302,6.918-0.869V377.609z"/>
		</g>
	</g>
</g>
</svg>
